OpenSim_Sub07_CSBaseline_GRF.mot
version=1
nRows=53
nColumns=19
inDegrees=no
endheader
time	lFx	lFy	lFz	lCOPx	lCOPy	lCOPz	rFx	rFy	rFz	rCOPx	rCOPy	rCOPz	lMx	lMy	lMz	rMx	rMy	rMz
19.47000000	10.56786490	61.47942012	2.31461341	0.39277694	0	-0.47669326	-64.22440954	740.32200733	-40.53554733	0.82298272	0	-0.45112686	0	-3.51477799	0	0	-2.37435613	0
19.48000000	7.92038612	41.45529254	1.85641497	0.28353209	0	-0.32383645	-59.83852567	752.96717947	-40.35623204	0.81589474	0	-0.45091436	0	-2.34326885	0	0	-2.49780558	0
19.49000000	5.38840880	25.87774439	1.08945770	0.15359853	0	-0.16336756	-55.26103135	760.08264073	-39.88854683	0.80889983	0	-0.45067157	0	-1.19206698	0	0	-2.55826438	-0.00000000
19.50000000	3.49135971	14.11990615	-0.21847381	0.05131636	0	-0.04848523	-50.96000829	763.08833460	-39.32270884	0.80229074	0	-0.45033057	0	-0.36655915	0	0	-2.62761381	0
19.51000000	3.02783954	5.81242847	-2.21407995	0.00088905	0	0.00397109	-47.06627795	763.25938658	-39.16488870	0.79613259	0	-0.44984715	0	0.01867485	0	0	-2.69457285	0.00000000
19.52000000	3.54138483	1.20898184	-4.12316747	-0.01281604	0	0.01599002	-43.74801411	761.54363121	-39.62573810	0.79047711	0	-0.44918796	0	0.11173424	0	0	-2.71448725	0
19.53000000	4.04418184	-0.35072453	-4.73911436	-0.01057299	0	0.01185168	-41.27566891	758.50774731	-40.46320046	0.78546875	0	-0.44832522	0	0.08520965	0	0	-2.75024832	0
19.54000000	4.33085544	-0.30958492	-4.98128786	-0.00514924	0	0.00534370	-39.63770495	754.06568416	-41.47597999	0.78123141	0	-0.44725195	0	0.03927085	0	0	-2.82137796	0
19.55000000	4.40245524	0.14742472	-4.89172225	-0.00136550	0	0.00118515	-38.63171103	747.51058111	-42.48784559	0.77754870	0	-0.44601316	0	0.00920769	0	0	-2.84666318	0
19.56000000	4.38813188	0.47527729	-4.70988988	0.00025643	0	-0.00045320	-38.10524050	738.63776271	-43.19205040	0.77435312	0	-0.44469141	0	-0.00292883	0	0	-2.83273108	0
19.57000000	4.37750473	0.62673451	-4.75722249	0.00056697	0	-0.00067814	-37.96405112	727.99903621	-43.30821161	0.77151279	0	-0.44337092	0	-0.00479092	0	0	-2.83816534	-0.00000000
19.58000000	4.34773650	0.65274929	-4.70205980	0.00038974	0	-0.00042753	-37.95047382	716.64059329	-42.58772029	0.76874435	0	-0.44208148	0	-0.00309238	0	0	-2.80704500	0
19.59000000	4.31719214	0.66172722	-4.77230563	0.00016488	0	-0.00016604	-37.72388353	705.86259037	-41.08745249	0.76579742	0	-0.44085074	0	-0.00123111	0	0	-2.64954852	0
19.60000000	4.29405957	0.65887750	-4.81204251	0.00003022	0	-0.00002120	-37.00169281	696.78150406	-39.22872555	0.76270544	0	-0.43966138	0	-0.00017760	0	0	-2.44833779	0
19.61000000	4.26989460	0.65118645	-4.80800919	-0.00001910	0	0.00002669	-35.80857596	689.82680702	-37.42485308	0.75942929	0	-0.43850312	0	0.00018140	0	0	-2.27458119	-0.00000000
19.62000000	4.24741555	0.66636110	-4.85702757	-0.00002338	0	0.00002712	-34.39760335	684.67424789	-35.98211764	0.75579573	0	-0.43739989	0	0.00019317	0	0	-2.05940976	0
19.63000000	4.23652763	0.71463134	-4.91608618	-0.00001382	0	0.00001484	-33.01211148	680.64936741	-34.99044517	0.75179567	0	-0.43637762	0	0.00010799	0	0	-1.81675211	0.00000000
19.64000000	4.21413659	0.80617695	-4.99782470	-0.00000498	0	0.00000482	-31.47797773	677.30111231	-34.35810679	0.74745123	0	-0.43545811	0	0.00003617	0	0	-1.62643233	0
19.65000000	4.16635065	0.88414076	-5.03154724	-0.00000038	0	-0.00000003	-29.67777923	674.70593909	-33.98455938	0.74275923	0	-0.43468388	0	0.00000070	0	0	-1.44324742	0
19.66000000	4.11221834	0.91436218	-5.11913063	0.00000101	0	-0.00000129	-27.70502176	673.24032973	-33.64337655	0.73783951	0	-0.43406606	0	-0.00000898	0	0	-1.25088994	-0.00000000
19.67000000	4.05335347	0.89569403	-5.21264928	0.00000092	0	-0.00000104	-25.63593999	673.10752454	-33.10268738	0.73281091	0	-0.43356671	0	-0.00000743	0	0	-1.11083224	0.00000000
19.68000000	3.99787454	0.84502607	-5.31754273	0.00000047	0	-0.00000050	-23.44098988	674.16379812	-32.39570539	0.72752538	0	-0.43315286	0	-0.00000363	0	0	-0.98202610	-0.00000000
19.69000000	3.97244455	0.78151388	-5.43405327	0.00000014	0	-0.00000013	-21.27102030	676.53624520	-31.70716982	0.72225798	0	-0.43271702	0	-0.00000098	0	0	-0.80555848	0.00000000
19.70000000	3.96820216	0.73508536	-5.47021457	-0.00000001	0	0.00000003	-19.36229839	680.19136771	-31.14020481	0.71707691	0	-0.43222454	0	0.00000017	0	0	-0.65238366	0.00000000
19.71000000	3.96762004	0.69464670	-5.50610925	-0.00000005	0	0.00000006	-17.63368135	684.87652309	-30.87986976	0.71186514	0	-0.43175037	0	0.00000044	0	0	-0.51109125	-0.00000000
19.72000000	3.98621492	0.72387800	-5.52974503	-0.00000005	0	0.00000005	-15.68334417	690.40602626	-31.14019323	0.70639711	0	-0.43136335	0	0.00000041	0	0	-0.32155629	0
19.73000000	4.02222300	0.86624662	-5.52259828	-0.00000006	0	0.00000005	-13.22198467	696.91335093	-31.89312347	0.70072006	0	-0.43102254	0	0.00000038	0	0	-0.12362843	0
19.74000000	4.05930729	1.02763671	-5.50950391	-0.00000008	0	0.00000006	-10.37845203	704.35971912	-32.95824993	0.69495498	0	-0.43071751	0	0.00000031	0	0	0.01102967	0
19.75000000	4.08019485	1.11257290	-5.50354650	-0.00000007	0	0.00000005	-7.37587544	712.36326209	-34.05695389	0.68914178	0	-0.43046861	0	-0.00000014	0	0	0.13734860	0
19.76000000	4.08287930	1.05672816	-5.54784565	0.00000008	0	-0.00000005	-4.36421625	720.44122227	-34.95361743	0.68333382	0	-0.43026224	0	-0.00000152	0	0	0.33982618	0
19.77000000	4.08954366	0.96622470	-5.59526665	0.00000051	0	-0.00000033	-1.24218321	728.21001776	-35.62382181	0.67758562	0	-0.43003118	0	-0.00000410	0	0	0.54437293	0
19.78000000	4.08750262	0.89145547	-5.62242486	0.00000126	0	-0.00000085	2.15287340	735.23812297	-36.30577887	0.67183840	0	-0.42971524	0	-0.00000683	0	0	0.71957523	0.00000000
19.79000000	4.05919741	0.81345149	-5.65871233	0.00000195	0	-0.00000133	5.82478678	741.22000140	-37.29867204	0.66611981	0	-0.42931001	0	-0.00000536	0	0	0.88558969	0.00000000
19.80000000	4.00307612	0.72220207	-5.69340033	0.00000117	0	-0.00000085	9.51767439	746.19943602	-38.69963228	0.66054471	0	-0.42882746	0	0.00000948	0	0	1.02183024	0
19.81000000	3.95539650	0.59507953	-5.69101527	-0.00000381	0	0.00000244	13.13441518	750.34217669	-40.38774120	0.65498315	0	-0.42828881	0	0.00004934	0	0	1.07827238	0
19.82000000	3.92029150	0.54662154	-5.61794588	-0.00001609	0	0.00001068	16.55181270	753.85641597	-42.22914065	0.64947372	0	-0.42773938	0	0.00011496	0	0	1.14322175	-0.00000000
19.83000000	3.90919262	0.56394048	-5.55817670	-0.00003477	0	0.00002341	19.59706773	756.88899008	-43.87563250	0.64415266	0	-0.42723858	0	0.00016458	0	0	1.26031568	0
19.84000000	3.90685721	0.63386466	-5.52747715	-0.00004535	0	0.00003110	22.18764679	759.46869028	-44.95911438	0.63910751	0	-0.42680074	0	0.00006750	0	0	1.36671747	0.00000000
19.85000000	3.88298254	0.70585136	-5.45151088	-0.00000689	0	0.00000636	24.46480017	761.52635001	-45.48765614	0.63419964	0	-0.42644499	0	-0.00041759	0	0	1.45279233	0
19.86000000	3.84479252	0.73745078	-5.33752315	0.00015089	0	-0.00009847	26.69464660	763.24840857	-45.74666646	0.62937879	0	-0.42617755	0	-0.00153332	0	0	1.53931218	0
19.87000000	3.83394258	0.77908622	-5.21742669	0.00048768	0	-0.00032532	29.06369890	764.99762907	-45.89458717	0.62453196	0	-0.42597824	0	-0.00310676	0	0	1.58981801	0
19.88000000	3.85329594	0.80011221	-5.16067403	0.00091959	0	-0.00062171	31.70774821	766.94582229	-45.88703602	0.61947117	0	-0.42583858	0	-0.00368900	0	0	1.62395206	0.00000000
19.89000000	3.87934883	0.67903943	-5.17881203	0.00096367	0	-0.00066816	34.62395281	768.86242971	-45.67836162	0.61405391	0	-0.42576897	0	0.00049634	0	0	1.69817396	0
19.90000000	3.90353995	0.46895080	-5.23352648	-0.00053926	0	0.00031365	37.81809811	770.14229250	-45.23840974	0.60831462	0	-0.42575230	0	0.01550648	0	0	1.75340153	0
19.91000000	3.88160581	0.12776092	-5.26315072	-0.00530363	0	0.00349300	41.09672895	770.29548309	-44.65650984	0.60247250	0	-0.42572422	0	0.04555014	0	0	1.71064940	0
19.92000000	3.64347568	-0.30593795	-5.24044534	-0.01417827	0	0.00949528	44.13355255	769.07662506	-44.18497770	0.59668770	0	-0.42566219	0	0.08053289	0	0	1.63182368	0
19.93000000	2.86514249	-0.46870520	-5.19079474	-0.02325863	0	0.01579972	46.78853074	766.16958059	-43.93014972	0.59084649	0	-0.42559206	0	0.07361837	0	0	1.55347977	0.00000000
19.94000000	1.33599045	0.70738411	-5.14044180	-0.01738267	0	0.01232421	49.27012080	761.58593387	-43.83953255	0.58494408	0	-0.42547403	0	-0.08018267	0	0	1.42522301	0
19.95000000	-0.40798840	5.17433258	-5.24656053	0.03502279	0	-0.02221258	51.73685412	755.47573740	-43.88213145	0.57905372	0	-0.42530751	0	-0.52441991	0	0	1.28327809	0.00000000
19.96000000	-0.29044254	14.87926263	-5.71965707	0.17304290	0	-0.11467717	54.31753547	747.70363817	-43.82989183	0.57326503	0	-0.42513804	0	-1.30008538	0	0	1.16155980	0
19.97000000	4.31894154	31.64814573	-6.78647360	0.39676640	0	-0.26670221	57.10776261	737.82112685	-43.41278774	0.56762122	0	-0.42498338	0	-1.99049138	0	0	1.06434781	-0.00000000
19.98000000	13.00690465	55.63531431	-9.33801761	0.62487706	0	-0.42426141	60.18751091	725.13106324	-42.44523560	0.56204790	0	-0.42486419	0	-1.72405810	0	0	1.05298809	0
19.99000000	20.25138816	83.18492929	-12.29967763	0.78734316	0	-0.53812607	63.22875087	708.99359782	-40.75683528	0.55655702	0	-0.42477255	0	-0.58553199	0	0	1.11599248	0
